<svg width="151" height="65" viewBox="0 0 151 65" fill="none" xmlns="http://www.w3.org/2000/svg">
<path d="M69.9091 19.1562C69.8097 18.8106 69.67 18.5052 69.4901 18.2401C69.3101 17.9702 69.09 17.7429 68.8295 17.5582C68.5739 17.3688 68.2803 17.2244 67.9489 17.125C67.6222 17.0256 67.2599 16.9759 66.8622 16.9759C66.1188 16.9759 65.4654 17.1605 64.902 17.5298C64.3433 17.8991 63.9077 18.4366 63.5952 19.142C63.2827 19.8428 63.1264 20.6998 63.1264 21.7131C63.1264 22.7263 63.2803 23.5881 63.5881 24.2983C63.8958 25.0085 64.3314 25.5507 64.8949 25.9247C65.4583 26.294 66.1236 26.4787 66.8906 26.4787C67.5866 26.4787 68.1809 26.3556 68.6733 26.1094C69.1705 25.8584 69.5492 25.5057 69.8097 25.0511C70.0748 24.5966 70.2074 24.0592 70.2074 23.4389L70.8324 23.5312H67.0824V21.2159H73.169V23.0483C73.169 24.3267 72.8991 25.4252 72.3594 26.3438C71.8196 27.2576 71.0762 27.9631 70.1293 28.4602C69.1823 28.9527 68.098 29.1989 66.8764 29.1989C65.5128 29.1989 64.3149 28.8982 63.2827 28.2969C62.2505 27.6908 61.4455 26.8314 60.8679 25.7188C60.295 24.6013 60.0085 23.2756 60.0085 21.7415C60.0085 20.5625 60.179 19.5114 60.5199 18.5881C60.8655 17.66 61.3485 16.8741 61.9688 16.2301C62.589 15.5862 63.3111 15.0961 64.1349 14.7599C64.9588 14.4238 65.8513 14.2557 66.8125 14.2557C67.6364 14.2557 68.4034 14.3764 69.1136 14.6179C69.8239 14.8546 70.4536 15.1908 71.0028 15.6264C71.5568 16.062 72.009 16.5805 72.3594 17.1818C72.7098 17.7784 72.9347 18.4366 73.0341 19.1562H69.9091ZM75.4222 29V18.0909H78.3555V19.9943H78.4691C78.668 19.3172 79.0018 18.8059 79.4705 18.4602C79.9393 18.1098 80.479 17.9347 81.0898 17.9347C81.2414 17.9347 81.4047 17.9441 81.5799 17.9631C81.7551 17.982 81.909 18.008 82.0415 18.0412V20.7259C81.8995 20.6832 81.703 20.6454 81.4521 20.6122C81.2011 20.5791 80.9715 20.5625 80.7631 20.5625C80.3181 20.5625 79.9203 20.6596 79.57 20.8537C79.2243 21.0431 78.9497 21.3082 78.7461 21.6491C78.5472 21.9901 78.4478 22.383 78.4478 22.8281V29H75.4222ZM88.0696 29.2131C86.9474 29.2131 85.9815 28.9858 85.1719 28.5312C84.367 28.072 83.7467 27.4233 83.3111 26.5852C82.8755 25.7424 82.6577 24.7457 82.6577 23.5952C82.6577 22.473 82.8755 21.4882 83.3111 20.6406C83.7467 19.7931 84.3598 19.1326 85.1506 18.6591C85.946 18.1856 86.8788 17.9489 87.9489 17.9489C88.6686 17.9489 89.3385 18.0649 89.9588 18.2969C90.5838 18.5241 91.1283 18.8674 91.5923 19.3267C92.0611 19.786 92.4257 20.3636 92.6861 21.0597C92.9465 21.7509 93.0767 22.5606 93.0767 23.4886V24.3196H83.8651V22.4446H90.2287C90.2287 22.009 90.134 21.6231 89.9446 21.2869C89.7552 20.9508 89.4924 20.688 89.1562 20.4986C88.8248 20.3045 88.4389 20.2074 87.9986 20.2074C87.5393 20.2074 87.1321 20.3139 86.777 20.527C86.4266 20.7353 86.152 21.017 85.9531 21.3722C85.7543 21.7225 85.6525 22.1132 85.6477 22.544V24.3267C85.6477 24.8665 85.7472 25.3329 85.946 25.7259C86.1496 26.1188 86.4361 26.4219 86.8054 26.6349C87.1747 26.848 87.6127 26.9545 88.1193 26.9545C88.4555 26.9545 88.7633 26.9072 89.0426 26.8125C89.322 26.7178 89.5611 26.5758 89.7599 26.3864C89.9588 26.197 90.1103 25.965 90.2145 25.6903L93.0128 25.875C92.8707 26.5473 92.5795 27.1345 92.1392 27.6364C91.7036 28.1335 91.1402 28.5218 90.4489 28.8011C89.7623 29.0758 88.9692 29.2131 88.0696 29.2131ZM100.023 29.2131C98.9006 29.2131 97.9347 28.9858 97.125 28.5312C96.3201 28.072 95.6998 27.4233 95.2642 26.5852C94.8286 25.7424 94.6108 24.7457 94.6108 23.5952C94.6108 22.473 94.8286 21.4882 95.2642 20.6406C95.6998 19.7931 96.313 19.1326 97.1037 18.6591C97.8991 18.1856 98.8319 17.9489 99.902 17.9489C100.622 17.9489 101.292 18.0649 101.912 18.2969C102.537 18.5241 103.081 18.8674 103.545 19.3267C104.014 19.786 104.379 20.3636 104.639 21.0597C104.9 21.7509 105.03 22.5606 105.03 23.4886V24.3196H95.8182V22.4446H102.182C102.182 22.009 102.087 21.6231 101.898 21.2869C101.708 20.9508 101.446 20.688 101.109 20.4986C100.778 20.3045 100.392 20.2074 99.9517 20.2074C99.4924 20.2074 99.0852 20.3139 98.7301 20.527C98.3797 20.7353 98.1051 21.017 97.9062 21.3722C97.7074 21.7225 97.6056 22.1132 97.6009 22.544V24.3267C97.6009 24.8665 97.7003 25.3329 97.8991 25.7259C98.1027 26.1188 98.3892 26.4219 98.7585 26.6349C99.1278 26.848 99.5658 26.9545 100.072 26.9545C100.409 26.9545 100.716 26.9072 100.996 26.8125C101.275 26.7178 101.514 26.5758 101.713 26.3864C101.912 26.197 102.063 25.965 102.168 25.6903L104.966 25.875C104.824 26.5473 104.533 27.1345 104.092 27.6364C103.657 28.1335 103.093 28.5218 102.402 28.8011C101.715 29.0758 100.922 29.2131 100.023 29.2131ZM110.03 22.6932V29H107.004V18.0909H109.888V20.0156H110.016C110.257 19.3812 110.662 18.8793 111.23 18.5099C111.798 18.1359 112.487 17.9489 113.297 17.9489C114.054 17.9489 114.715 18.1146 115.278 18.446C115.842 18.7775 116.28 19.2509 116.592 19.8665C116.905 20.4773 117.061 21.2064 117.061 22.054V29H114.036V22.5938C114.04 21.9261 113.87 21.4053 113.524 21.0312C113.179 20.6525 112.703 20.4631 112.097 20.4631C111.689 20.4631 111.33 20.5507 111.017 20.7259C110.709 20.901 110.468 21.1567 110.293 21.4929C110.122 21.8243 110.035 22.2244 110.03 22.6932ZM119.112 21.7273V20.1577L122.571 17.3949C122.836 17.1771 123.065 16.9806 123.26 16.8054C123.454 16.6302 123.605 16.4527 123.714 16.2727C123.823 16.0928 123.877 15.8939 123.877 15.6761C123.877 15.3352 123.738 15.0724 123.458 14.8878C123.179 14.7031 122.841 14.6108 122.443 14.6108C122.017 14.6108 121.673 14.715 121.413 14.9233C121.157 15.1269 121.029 15.4228 121.029 15.8111H118.934C118.934 14.902 119.266 14.1894 119.929 13.6733C120.592 13.1525 121.439 12.892 122.471 12.892C123.177 12.892 123.79 13.0152 124.311 13.2614C124.832 13.5028 125.234 13.8319 125.518 14.2486C125.807 14.6652 125.951 15.1316 125.951 15.6477C125.951 16.0644 125.864 16.4527 125.689 16.8125C125.518 17.1676 125.253 17.518 124.893 17.8636C124.538 18.2045 124.079 18.562 123.515 18.9361L122.251 19.8736V19.9517H126.051V21.7273H119.112Z" fill="white"/>
<rect x="17.5" y="2.5" width="131" height="60" rx="7.5" stroke="white" stroke-width="5"/>
<rect x="2" y="7" width="51" height="51" rx="8" fill="white" stroke="#2B2133" stroke-width="4"/>
<path d="M65.4205 50H60.2642V35.4545H65.4631C66.9261 35.4545 68.1856 35.7457 69.2415 36.3281C70.2973 36.9058 71.1094 37.7367 71.6776 38.821C72.2505 39.9053 72.5369 41.2027 72.5369 42.7131C72.5369 44.2282 72.2505 45.5303 71.6776 46.6193C71.1094 47.7083 70.2926 48.544 69.2273 49.1264C68.1667 49.7088 66.8977 50 65.4205 50ZM63.3395 47.3651H65.2926C66.2017 47.3651 66.9664 47.2041 67.5866 46.8821C68.2116 46.5554 68.6804 46.0511 68.9929 45.3693C69.3101 44.6828 69.4688 43.7973 69.4688 42.7131C69.4688 41.6383 69.3101 40.7599 68.9929 40.0781C68.6804 39.3963 68.214 38.8944 67.5938 38.5724C66.9735 38.2505 66.2088 38.0895 65.2997 38.0895H63.3395V47.3651ZM79.7298 50.2131C78.6076 50.2131 77.6417 49.9858 76.832 49.5312C76.0271 49.072 75.4068 48.4233 74.9712 47.5852C74.5356 46.7424 74.3178 45.7457 74.3178 44.5952C74.3178 43.473 74.5356 42.4882 74.9712 41.6406C75.4068 40.7931 76.02 40.1326 76.8107 39.6591C77.6062 39.1856 78.5389 38.9489 79.609 38.9489C80.3287 38.9489 80.9987 39.0649 81.619 39.2969C82.244 39.5241 82.7885 39.8674 83.2525 40.3267C83.7212 40.786 84.0858 41.3636 84.3462 42.0597C84.6067 42.7509 84.7369 43.5606 84.7369 44.4886V45.3196H75.5252V43.4446H81.8888C81.8888 43.009 81.7942 42.6231 81.6048 42.2869C81.4154 41.9508 81.1526 41.688 80.8164 41.4986C80.485 41.3045 80.0991 41.2074 79.6587 41.2074C79.1995 41.2074 78.7923 41.3139 78.4371 41.527C78.0868 41.7353 77.8121 42.017 77.6133 42.3722C77.4144 42.7225 77.3126 43.1132 77.3079 43.544V45.3267C77.3079 45.8665 77.4073 46.3329 77.6062 46.7259C77.8098 47.1188 78.0962 47.4219 78.4656 47.6349C78.8349 47.848 79.2728 47.9545 79.7795 47.9545C80.1156 47.9545 80.4234 47.9072 80.7028 47.8125C80.9821 47.7178 81.2212 47.5758 81.4201 47.3864C81.619 47.197 81.7705 46.965 81.8746 46.6903L84.6729 46.875C84.5309 47.5473 84.2397 48.1345 83.7994 48.6364C83.3638 49.1335 82.8003 49.5218 82.109 49.8011C81.4225 50.0758 80.6294 50.2131 79.7298 50.2131ZM95.788 42.2017L93.0181 42.3722C92.9708 42.1354 92.869 41.9223 92.7127 41.733C92.5565 41.5388 92.3505 41.3849 92.0948 41.2713C91.8439 41.1529 91.5432 41.0938 91.1928 41.0938C90.7241 41.0938 90.3287 41.1932 90.0067 41.392C89.6848 41.5862 89.5238 41.8466 89.5238 42.1733C89.5238 42.4337 89.628 42.6539 89.8363 42.8338C90.0446 43.0137 90.4021 43.1581 90.9087 43.267L92.8832 43.6648C93.9438 43.8826 94.7345 44.233 95.2553 44.7159C95.7762 45.1989 96.0366 45.8333 96.0366 46.6193C96.0366 47.3343 95.8259 47.9616 95.4045 48.5014C94.9878 49.0412 94.4149 49.4626 93.6857 49.7656C92.9613 50.0639 92.1256 50.2131 91.1786 50.2131C89.7345 50.2131 88.5839 49.9124 87.7269 49.3111C86.8746 48.705 86.3751 47.8812 86.2283 46.8395L89.2042 46.6832C89.2942 47.1236 89.512 47.4598 89.8576 47.6918C90.2032 47.919 90.646 48.0327 91.1857 48.0327C91.716 48.0327 92.1422 47.9309 92.4641 47.7273C92.7908 47.5189 92.9566 47.2514 92.9613 46.9247C92.9566 46.6501 92.8406 46.4252 92.6133 46.25C92.386 46.0701 92.0356 45.9328 91.5621 45.8381L89.6729 45.4616C88.6076 45.2486 87.8145 44.8793 87.2937 44.3537C86.7776 43.8281 86.5195 43.1581 86.5195 42.3438C86.5195 41.643 86.7089 41.0393 87.0877 40.5327C87.4712 40.026 88.0086 39.6354 88.6999 39.3608C89.396 39.0862 90.2103 38.9489 91.1431 38.9489C92.521 38.9489 93.6052 39.2401 94.396 39.8224C95.1914 40.4048 95.6554 41.1979 95.788 42.2017ZM97.9418 50V39.0909H100.967V50H97.9418ZM99.4616 37.6847C99.0118 37.6847 98.6259 37.5355 98.304 37.2372C97.9867 36.9342 97.8281 36.572 97.8281 36.1506C97.8281 35.7339 97.9867 35.3764 98.304 35.0781C98.6259 34.7751 99.0118 34.6236 99.4616 34.6236C99.9115 34.6236 100.295 34.7751 100.612 35.0781C100.934 35.3764 101.095 35.7339 101.095 36.1506C101.095 36.572 100.934 36.9342 100.612 37.2372C100.295 37.5355 99.9115 37.6847 99.4616 37.6847ZM108.306 54.3182C107.326 54.3182 106.485 54.1832 105.784 53.9134C105.088 53.6482 104.534 53.286 104.123 52.8267C103.711 52.3674 103.443 51.8513 103.32 51.2784L106.118 50.902C106.203 51.1198 106.338 51.3234 106.523 51.5128C106.708 51.7022 106.952 51.8537 107.255 51.9673C107.562 52.0857 107.936 52.1449 108.377 52.1449C109.035 52.1449 109.577 51.9839 110.003 51.6619C110.434 51.3447 110.65 50.812 110.65 50.0639V48.0682H110.522C110.389 48.3712 110.19 48.6577 109.925 48.9276C109.66 49.1974 109.319 49.4176 108.902 49.5881C108.486 49.7585 107.989 49.8438 107.411 49.8438C106.592 49.8438 105.846 49.6544 105.174 49.2756C104.506 48.892 103.973 48.3073 103.576 47.5213C103.183 46.7306 102.986 45.7315 102.986 44.5241C102.986 43.2884 103.187 42.2562 103.59 41.4276C103.992 40.599 104.527 39.9787 105.195 39.5668C105.867 39.1548 106.604 38.9489 107.404 38.9489C108.015 38.9489 108.526 39.053 108.938 39.2614C109.35 39.465 109.681 39.7206 109.932 40.0284C110.188 40.3314 110.384 40.6297 110.522 40.9233H110.635V39.0909H113.64V50.1065C113.64 51.0346 113.412 51.8111 112.958 52.4361C112.503 53.0611 111.873 53.5298 111.069 53.8423C110.268 54.1596 109.347 54.3182 108.306 54.3182ZM108.37 47.571C108.857 47.571 109.269 47.4503 109.605 47.2088C109.946 46.9626 110.207 46.6122 110.387 46.1577C110.571 45.6984 110.664 45.1491 110.664 44.5099C110.664 43.8707 110.574 43.3168 110.394 42.848C110.214 42.3745 109.953 42.0076 109.613 41.7472C109.272 41.4867 108.857 41.3565 108.37 41.3565C107.873 41.3565 107.453 41.4915 107.113 41.7614C106.772 42.0265 106.514 42.3958 106.338 42.8693C106.163 43.3428 106.076 43.8897 106.076 44.5099C106.076 45.1397 106.163 45.6842 106.338 46.1435C106.518 46.598 106.776 46.9508 107.113 47.2017C107.453 47.4479 107.873 47.571 108.37 47.571ZM119.073 43.6932V50H116.047V39.0909H118.931V41.0156H119.059C119.3 40.3812 119.705 39.8793 120.273 39.5099C120.841 39.1359 121.53 38.9489 122.34 38.9489C123.097 38.9489 123.758 39.1146 124.321 39.446C124.885 39.7775 125.323 40.2509 125.635 40.8665C125.948 41.4773 126.104 42.2064 126.104 43.054V50H123.078V43.5938C123.083 42.9261 122.913 42.4053 122.567 42.0312C122.221 41.6525 121.746 41.4631 121.14 41.4631C120.732 41.4631 120.373 41.5507 120.06 41.7259C119.752 41.901 119.511 42.1567 119.336 42.4929C119.165 42.8243 119.078 43.2244 119.073 43.6932ZM137.565 42.2017L134.795 42.3722C134.748 42.1354 134.646 41.9223 134.49 41.733C134.334 41.5388 134.128 41.3849 133.872 41.2713C133.621 41.1529 133.321 41.0938 132.97 41.0938C132.501 41.0938 132.106 41.1932 131.784 41.392C131.462 41.5862 131.301 41.8466 131.301 42.1733C131.301 42.4337 131.405 42.6539 131.614 42.8338C131.822 43.0137 132.179 43.1581 132.686 43.267L134.661 43.6648C135.721 43.8826 136.512 44.233 137.033 44.7159C137.554 45.1989 137.814 45.8333 137.814 46.6193C137.814 47.3343 137.603 47.9616 137.182 48.5014C136.765 49.0412 136.192 49.4626 135.463 49.7656C134.739 50.0639 133.903 50.2131 132.956 50.2131C131.512 50.2131 130.361 49.9124 129.504 49.3111C128.652 48.705 128.152 47.8812 128.006 46.8395L130.982 46.6832C131.071 47.1236 131.289 47.4598 131.635 47.6918C131.981 47.919 132.423 48.0327 132.963 48.0327C133.493 48.0327 133.92 47.9309 134.241 47.7273C134.568 47.5189 134.734 47.2514 134.739 46.9247C134.734 46.6501 134.618 46.4252 134.391 46.25C134.163 46.0701 133.813 45.9328 133.339 45.8381L131.45 45.4616C130.385 45.2486 129.592 44.8793 129.071 44.3537C128.555 43.8281 128.297 43.1581 128.297 42.3438C128.297 41.643 128.486 41.0393 128.865 40.5327C129.249 40.026 129.786 39.6354 130.477 39.3608C131.173 39.0862 131.988 38.9489 132.92 38.9489C134.298 38.9489 135.383 39.2401 136.173 39.8224C136.969 40.4048 137.433 41.1979 137.565 42.2017Z" fill="white"/>
</svg>
